<svg width="1015" height="308" viewBox="0 0 1015 308" fill="none" xmlns="http://www.w3.org/2000/svg">
<g clip-path="url(#clip0_415_571)">
<rect x="253" y="40.5" width="762" height="227" rx="12" fill="white"/>
<rect x="966.561" y="124.256" width="217.271" height="58.7439" fill="white"/>
<path d="M952.83 22.9862C956.172 20.0963 961.225 20.463 964.114 23.8052L1033.97 104.598C1036.86 107.94 1036.5 112.992 1033.15 115.882L1021.05 126.347C1017.71 129.237 1012.66 128.871 1009.77 125.528L934.676 38.6838L952.83 22.9862Z" fill="#F9941F"/>
<rect width="73.9018" height="16" transform="translate(968.912 42.6934) rotate(49.1511)" fill="#F9941F"/>
<g clip-path="url(#clip1_415_571)">
<path fill-rule="evenodd" clip-rule="evenodd" d="M970.318 46.7656C970.457 46.9261 970.526 47.1352 970.511 47.3468C970.496 47.5584 970.397 47.7553 970.236 47.894L969.631 48.4173L970.155 49.0224C970.293 49.1829 970.363 49.392 970.347 49.6036C970.332 49.8152 970.233 50.0121 970.073 50.1509C969.912 50.2896 969.703 50.359 969.491 50.3436C969.28 50.3282 969.083 50.2295 968.944 50.069L968.421 49.4638L967.816 49.9871C967.655 50.1258 967.446 50.1952 967.235 50.1798C967.023 50.1645 966.826 50.0657 966.687 49.9052C966.549 49.7447 966.479 49.5356 966.495 49.324C966.51 49.1124 966.609 48.9155 966.769 48.7768L967.374 48.2535L966.851 47.6484C966.712 47.4879 966.643 47.2788 966.658 47.0672C966.674 46.8556 966.773 46.6587 966.933 46.52C967.094 46.3812 967.303 46.3118 967.514 46.3272C967.726 46.3426 967.923 46.4414 968.061 46.6019L968.585 47.207L969.19 46.6837C969.35 46.545 969.559 46.4756 969.771 46.491C969.983 46.5064 970.18 46.6051 970.318 46.7656ZM964.267 51.9982C964.406 52.1587 964.475 52.3677 964.46 52.5793C964.444 52.791 964.345 52.9878 964.185 53.1266L963.58 53.6498L964.103 54.255C964.242 54.4155 964.311 54.6245 964.296 54.8361C964.28 55.0478 964.182 55.2446 964.021 55.3834C963.861 55.5222 963.652 55.5915 963.44 55.5761C963.228 55.5608 963.031 55.462 962.893 55.3015L962.369 54.6963L961.764 55.2196C961.604 55.3584 961.395 55.4277 961.183 55.4123C960.972 55.397 960.775 55.2982 960.636 55.1377C960.497 54.9772 960.428 54.7682 960.443 54.5565C960.459 54.3449 960.557 54.1481 960.718 54.0093L961.323 53.486L960.8 52.8809C960.661 52.7204 960.592 52.5113 960.607 52.2997C960.622 52.0881 960.721 51.8913 960.882 51.7525C961.042 51.6137 961.251 51.5444 961.463 51.5597C961.674 51.5751 961.871 51.6739 962.01 51.8344L962.533 52.4395L963.138 51.9163C963.299 51.7775 963.508 51.7082 963.72 51.7235C963.931 51.7389 964.128 51.8377 964.267 51.9982ZM973.981 51.0017C974.097 51.1352 974.165 51.3032 974.175 51.4794C974.185 51.6557 974.136 51.8304 974.037 51.9762L971.957 55.0213L972.542 58.0629C972.568 58.2008 972.558 58.3433 972.512 58.4759C972.466 58.6086 972.386 58.7267 972.279 58.8186C972.173 58.9104 972.045 58.9727 971.907 58.9991C971.769 59.0256 971.626 59.0152 971.494 58.9692L968.568 57.952L965.254 59.569C965.096 59.6463 964.916 59.669 964.743 59.6335C964.57 59.5981 964.414 59.5065 964.299 59.3731C964.183 59.2396 964.115 59.0718 964.105 58.8957C964.095 58.7196 964.144 58.545 964.243 58.3993L966.323 55.3542L965.738 52.3125C965.711 52.1746 965.722 52.0322 965.768 51.8995C965.814 51.7669 965.894 51.6487 966 51.5568C966.107 51.465 966.235 51.4027 966.373 51.3763C966.511 51.3499 966.653 51.3602 966.786 51.4063L969.712 52.4234L973.025 50.8064C973.184 50.729 973.364 50.7062 973.536 50.7415C973.709 50.7769 973.866 50.8683 973.981 51.0017V51.0017Z" fill="#FF0000"/>
</g>
<path d="M975.363 70.2498C974.945 69.7657 974.645 69.242 974.465 68.6787C974.29 68.1216 974.226 67.5526 974.274 66.9719C974.327 66.3972 974.492 65.842 974.769 65.3063C975.046 64.7706 975.436 64.2856 975.938 63.8513C976.44 63.417 976.974 63.0984 977.539 62.8955C978.115 62.6934 978.688 62.6102 979.259 62.646C979.84 62.6825 980.394 62.8333 980.919 63.0982C981.45 63.358 981.925 63.7299 982.344 64.2141C982.762 64.6982 983.055 65.2015 983.221 65.724C983.392 66.2526 983.457 66.7678 983.415 67.2695C983.379 67.766 983.25 68.2104 983.029 68.6027L981.554 67.9426C981.783 67.5225 981.876 67.067 981.832 66.5761C981.794 66.0799 981.59 65.617 981.218 65.1873C980.852 64.7637 980.428 64.4749 979.945 64.3207C979.468 64.1727 978.976 64.1596 978.468 64.2816C977.965 64.4096 977.478 64.6776 977.006 65.0858C976.534 65.4939 976.195 65.9401 975.99 66.4243C975.796 66.9093 975.737 67.3986 975.815 67.892C975.898 68.3914 976.123 68.8529 976.489 69.2765C976.86 69.7062 977.286 69.9781 977.765 70.0923C978.251 70.2013 978.718 70.1728 979.167 70.0069L979.607 71.5617C979.187 71.724 978.725 71.7898 978.223 71.759C977.726 71.723 977.229 71.5819 976.731 71.3359C976.238 71.096 975.782 70.7339 975.363 70.2498ZM980.458 76.1417C980.128 75.7604 979.925 75.3543 979.849 74.9234C979.777 74.4985 979.828 74.0796 979.999 73.6667C980.176 73.2598 980.468 72.8811 980.873 72.5305L983.896 69.9169L984.924 71.106L982.001 73.6333C981.795 73.8112 981.648 74.0075 981.558 74.2223C981.48 74.4378 981.461 74.6604 981.501 74.8902C981.553 75.1208 981.662 75.3329 981.83 75.5266C981.997 75.7202 982.188 75.8561 982.404 75.9341C982.626 76.0069 982.852 76.0176 983.082 75.9663C983.313 75.915 983.537 75.7951 983.755 75.6068L986.651 73.103L987.679 74.2921L982.741 78.5619L981.768 77.4363L982.739 76.5965L982.653 76.8454C982.251 76.9921 981.859 76.9977 981.477 76.8622C981.101 76.7328 980.761 76.4926 980.458 76.1417ZM984.024 80.0455L988.962 75.7757L989.927 76.8922L988.829 77.8419L988.914 77.6099C989.382 77.4057 989.794 77.3618 990.148 77.4783C990.508 77.6008 990.837 77.8345 991.135 78.1795L991.386 78.4699L990.333 79.3804L989.965 78.9538C989.672 78.6149 989.33 78.4341 988.94 78.4115C988.557 78.3837 988.177 78.532 987.802 78.8564L985.052 81.2346L984.024 80.0455ZM987.286 83.8188L992.224 79.549L993.19 80.6655L992.091 81.6152L992.176 81.3832C992.645 81.179 993.056 81.1351 993.411 81.2516C993.771 81.3741 994.1 81.6079 994.398 81.9528L994.649 82.2433L993.596 83.1537L993.227 82.7271C992.934 82.3882 992.593 82.2075 992.203 82.1848C991.819 82.157 991.44 82.3053 991.065 82.6297L988.314 85.0079L987.286 83.8188ZM992.465 90.0282C992.025 89.5199 991.756 88.9757 991.656 88.3956C991.556 87.8155 991.612 87.2495 991.822 86.6976C992.032 86.1457 992.376 85.663 992.854 85.2497C993.351 84.8206 993.881 84.5471 994.445 84.4293C995.021 84.3123 995.58 84.3415 996.123 84.5171C996.672 84.6987 997.145 85.0194 997.542 85.4793C997.877 85.8666 998.107 86.2604 998.231 86.6608C998.36 87.0672 998.402 87.4701 998.356 87.8694C998.31 88.2688 998.189 88.6485 997.992 89.0086C997.802 89.3635 997.541 89.6848 997.208 89.9726C997.123 90.0458 997.03 90.1156 996.929 90.182C996.833 90.2545 996.741 90.3074 996.654 90.3407L993.357 86.5283L994.265 85.7434L996.98 88.8841L996.067 88.6902C996.393 88.504 996.628 88.2743 996.772 88.0012C996.922 87.7342 996.98 87.4519 996.944 87.1545C996.914 86.863 996.787 86.5872 996.562 86.327C996.348 86.0789 996.093 85.9129 995.798 85.8292C995.51 85.7402 995.2 85.7489 994.869 85.8553C994.55 85.9626 994.231 86.1748 993.913 86.492C993.589 86.7294 993.354 87.0016 993.207 87.3086C993.071 87.6163 993.029 87.928 993.079 88.2437C993.136 88.5654 993.281 88.8624 993.517 89.1347C993.752 89.407 994.009 89.5872 994.286 89.6754C994.568 89.7696 994.853 89.7875 995.141 89.729L995.501 91.0993C995.181 91.2066 994.842 91.2358 994.482 91.187C994.123 91.1382 993.769 91.0161 993.42 90.8207C993.076 90.6312 992.758 90.3671 992.465 90.0282ZM995.682 93.5284L1000.62 89.2586L1001.59 90.3751L1000.61 91.2149L1000.71 90.975C1001.1 90.8336 1001.49 90.8276 1001.87 90.957C1002.25 91.0872 1002.6 91.3278 1002.9 91.6788C1003.22 92.0419 1003.42 92.4307 1003.5 92.8451C1003.59 93.2655 1003.56 93.6774 1003.41 94.0807C1003.27 94.4787 1003.01 94.8373 1002.64 95.1565L999.465 97.9036L998.437 96.7145L1001.33 94.2107C1001.55 94.0223 1001.7 93.8178 1001.79 93.597C1001.87 93.3762 1001.89 93.1536 1001.84 92.929C1001.81 92.7053 1001.7 92.4936 1001.53 92.2939C1001.36 92.1002 1001.17 91.967 1000.95 91.8942C1000.73 91.8162 1000.51 91.8028 1000.28 91.8542C1000.05 91.9055 999.824 92.0253 999.606 92.2137L996.71 94.7175L995.682 93.5284ZM1002.55 101.586C1002.07 101.029 1001.85 100.465 1001.88 99.8951C1001.93 99.3256 1002.23 98.8002 1002.79 98.3188L1004.97 96.4351L1004.23 95.5819L1005.29 94.6636L1005.37 94.7543C1005.58 94.9964 1005.81 95.129 1006.05 95.1523C1006.29 95.1755 1006.53 95.0825 1006.78 94.8732L1007.16 94.5436L1008.18 95.7327L1007.06 96.7059L1008.04 97.8406L1006.98 98.7589L1006 97.6242L1003.88 99.453C1003.72 99.5943 1003.6 99.7419 1003.54 99.8958C1003.47 100.056 1003.46 100.222 1003.51 100.396C1003.56 100.575 1003.67 100.762 1003.83 100.955C1003.87 100.998 1003.91 101.043 1003.97 101.093C1004.03 101.148 1004.08 101.2 1004.13 101.249L1003.12 102.128C1003.03 102.054 1002.94 101.968 1002.83 101.869C1002.72 101.771 1002.63 101.676 1002.55 101.586Z" fill="#FF0000"/>
</g>
<rect y="5.62817" width="326" height="296" rx="12" fill="white"/>
<defs>
<clipPath id="clip0_415_571">
<rect x="253" y="40.5" width="762" height="227" rx="12" fill="white"/>
</clipPath>
<clipPath id="clip1_415_571">
<rect width="16" height="16" fill="white" transform="translate(968.912 42.6934) rotate(49.1511)"/>
</clipPath>
</defs>
</svg>
