<svg width="111" height="83" viewBox="0 0 111 83" fill="none" xmlns="http://www.w3.org/2000/svg">
<g clip-path="url(#clip0_198_1088)">
<path d="M66.1744 56.2949C74.3903 56.2949 81.0506 49.5105 81.0506 41.1415C81.0506 32.7726 74.3903 25.9882 66.1744 25.9882C57.9586 25.9882 51.2983 32.7726 51.2983 41.1415C51.2983 49.5105 57.9586 56.2949 66.1744 56.2949Z" fill="#00F2B2"/>
<path d="M95.9265 56.2949C104.142 56.2949 110.803 49.5105 110.803 41.1415C110.803 32.7726 104.142 25.9882 95.9265 25.9882C87.7107 25.9882 81.0503 32.7726 81.0503 41.1415C81.0503 49.5105 87.7107 56.2949 95.9265 56.2949Z" fill="#00F2B2"/>
<path d="M41.1916 82.2831C18.9342 82.2831 0.802734 63.8137 0.802734 41.1415C0.802734 18.4693 18.9342 0 41.1916 0C63.449 0 81.5805 18.4693 81.5805 41.1415C81.5805 63.8137 63.449 82.2831 41.1916 82.2831ZM41.1916 1.07962C19.502 1.07962 1.8626 19.0477 1.8626 41.1415C1.8626 63.2354 19.502 81.2035 41.1916 81.2035C62.8812 81.2035 80.5206 63.2354 80.5206 41.1415C80.5206 19.0477 62.8812 1.07962 41.1916 1.07962Z" fill="black"/>
<path d="M47.4371 75.921C28.6243 75.921 13.2939 60.3049 13.2939 41.1415C13.2939 21.9781 28.6243 6.36208 47.4371 6.36208C66.2499 6.36208 81.5802 21.9781 81.5802 41.1415C81.5802 60.3435 66.2499 75.921 47.4371 75.921ZM47.4371 7.4417C29.1921 7.4417 14.3539 22.5565 14.3539 41.1415C14.3539 59.7265 29.1921 74.8413 47.4371 74.8413C65.6821 74.8413 80.5204 59.7265 80.5204 41.1415C80.5204 22.5565 65.6821 7.4417 47.4371 7.4417Z" fill="black"/>
<path d="M53.6831 69.5589C38.3149 69.5589 25.7856 56.7962 25.7856 41.1415C25.7856 25.4869 38.3149 12.7242 53.6831 12.7242C69.0513 12.7242 81.5806 25.4869 81.5806 41.1415C81.5806 56.8347 69.0513 69.5589 53.6831 69.5589ZM53.6831 13.8038C38.8827 13.8038 26.8456 26.0653 26.8456 41.1415C26.8456 56.2178 38.8827 68.4792 53.6831 68.4792C68.4836 68.4792 80.5208 56.2178 80.5208 41.1415C80.5208 26.0653 68.4836 13.8038 53.6831 13.8038Z" fill="black"/>
<path d="M59.9286 63.1968C48.005 63.1968 38.2769 53.2873 38.2769 41.1415C38.2769 28.9957 48.005 19.0863 59.9286 19.0863C71.8522 19.0863 81.5804 28.9957 81.5804 41.1415C81.5804 53.3259 71.8522 63.1968 59.9286 63.1968ZM59.9286 20.1659C48.5728 20.1659 39.3367 29.5741 39.3367 41.1415C39.3367 52.709 48.5728 62.1172 59.9286 62.1172C71.2844 62.1172 80.5205 52.709 80.5205 41.1415C80.5205 29.5741 71.2844 20.1659 59.9286 20.1659Z" fill="black"/>
<path d="M66.1746 56.8347C57.6956 56.8347 50.7686 49.7786 50.7686 41.1415C50.7686 32.5045 57.6956 25.4484 66.1746 25.4484C74.6536 25.4484 81.5807 32.5045 81.5807 41.1415C81.5807 49.8171 74.6536 56.8347 66.1746 56.8347ZM66.1746 26.528C58.2634 26.528 51.8285 33.0829 51.8285 41.1415C51.8285 49.2002 58.2634 55.7551 66.1746 55.7551C74.0859 55.7551 80.5208 49.2002 80.5208 41.1415C80.5208 33.0829 74.0859 26.528 66.1746 26.528Z" fill="black"/>
</g>
<defs>
<clipPath id="clip0_198_1088">
<rect width="110" height="83" fill="white" transform="translate(0.802734)"/>
</clipPath>
</defs>
</svg>
