<svg width="80" height="83" viewBox="0 0 80 83" fill="none" xmlns="http://www.w3.org/2000/svg">
<g clip-path="url(#clip0_181_1018)">
<path d="M78.0707 20.8819H20.624V81.6875H78.0707V20.8819Z" fill="#00F2B2"/>
<path d="M20.624 62.0939H1.15649V60.8057H20.0157V0.643951H21.2324V61.4497C21.2324 61.7717 20.9717 62.0939 20.624 62.0939Z" fill="black"/>
<path d="M1.1999 82.6537C1.11299 82.6537 1.02608 82.6537 0.982626 82.6073C0.765354 82.5156 0.591553 82.2858 0.591553 82.0096V0.643931C0.591553 0.275969 0.852263 0 1.1999 0H78.983C79.244 0 79.4611 0.137983 79.5482 0.413954C79.6348 0.643931 79.5916 0.9199 79.4178 1.10388L1.63444 82.5156C1.50408 82.6073 1.33026 82.6537 1.1999 82.6537ZM1.80827 1.28786V80.4914L77.506 1.28786H1.80827Z" fill="black"/>
<path d="M20.2393 0.167007L0.792969 20.4327L1.64662 21.3505L21.093 1.08474L20.2393 0.167007Z" fill="black"/>
<path d="M39.653 0.183334L0.760254 40.7148L1.6139 41.6326L40.5066 1.10106L39.653 0.183334Z" fill="black"/>
<path d="M59.559 20.2379H1.19995V21.5258H59.559V20.2379Z" fill="black"/>
<path d="M40.0916 41.8097H1.19995V40.5218H39.4833V0.643951H40.7V41.1658C40.7 41.5338 40.4392 41.8097 40.0916 41.8097Z" fill="black"/>
<path d="M60.1675 0.643951H58.9507V20.9279H60.1675V0.643951Z" fill="black"/>
<path d="M59.1206 0.153915L0.774414 61.2689L1.63025 62.1843L59.9767 1.06933L59.1206 0.153915Z" fill="black"/>
</g>
<defs>
<clipPath id="clip0_181_1018">
<rect width="79" height="83" fill="white" transform="translate(0.591553)"/>
</clipPath>
</defs>
</svg>
